<svg id="Capa_1" data-name="Capa 1" xmlns="http://www.w3.org/2000/svg" xmlns:xlink="http://www.w3.org/1999/xlink" viewBox="0 0 672.3 190.63"><defs><style>.cls-1{fill:url(#Degradado_sin_nombre_15);}.cls-2{fill:#fe5f55;}.cls-3{fill:#131863;}</style><radialGradient id="Degradado_sin_nombre_15" cx="85.39" cy="88.4" r="86.91" gradientUnits="userSpaceOnUse"><stop offset="0" stop-color="#fe5f55"/><stop offset="0.18" stop-color="#c84c60"/><stop offset="0.42" stop-color="#88366e"/><stop offset="0.62" stop-color="#592678"/><stop offset="0.78" stop-color="#3d1c7e"/><stop offset="0.87" stop-color="#321880"/><stop offset="1" stop-color="#321880"/></radialGradient></defs><title>logo1</title><path class="cls-1" d="M0,103.38a102.86,102.86,0,0,0,18.33,58.77,67.19,67.19,0,0,0,7.17,8.71l3.88,3.95a6,6,0,0,0,4.64,2,7.24,7.24,0,0,0,4.67-1.91l27.19-27.2a57.9,57.9,0,1,0-10.44-11.56L38.62,152.37a6,6,0,0,1-9.2-1.06A88.14,88.14,0,0,1,157.75,34s3.3,2.21,5.4,2.21a7.64,7.64,0,0,0,5.42-13l0,0-1-.77A103.37,103.37,0,0,0,0,103.38Zm103.38,46.27a46.27,46.27,0,1,1,46.27-46.27A46.27,46.27,0,0,1,103.38,149.65Z"/><path class="cls-2" d="M100.93,75.66l.83-.07A27.84,27.84,0,1,1,75.59,105c0-.58,0-1.15,0-1.73A27.81,27.81,0,0,0,100.93,75.66Z"/><path class="cls-3" d="M289.26,157.31H267V111.19H221.79v46.12H199.53V46.3h22.26V94H267V46.3h22.26Z"/><path class="cls-3" d="M304.59,115.3q0-18.45,10.29-30.23t28.51-11.78q18.3,0,28.67,11.74t10.37,30.27v1.6q0,18.61-10.33,30.31t-28.55,11.7q-18.3,0-28.63-11.7T304.59,116.9Zm22.18,1.6q0,11.29,4,18.11t12.81,6.83q8.61,0,12.62-6.87t4-18.07v-1.6q0-11-4-17.91t-12.74-6.94q-8.61,0-12.61,7t-4,17.88Z"/><path class="cls-3" d="M424.82,126.59l1.45,7.62h.46l1.52-7.62,13.57-51.77h23.26L437,157.31H415.75L387.69,74.82h23.25Z"/><path class="cls-3" d="M498.16,55.07H475.9V38.38h22.26Zm0,102.24H475.9V74.82h22.26Z"/><path class="cls-3" d="M583,111.19H540.4v46.12H518.14V46.3H590.8V63.46H540.4V94H583Z"/><path class="cls-3" d="M631.21,122.7l.91,4.57h.46l15.78-52.45H672.3l-33.47,94.84a43.75,43.75,0,0,1-9.53,14.91q-6,6.06-18.07,6.06a27.48,27.48,0,0,1-5.22-.46c-1.6-.3-3.55-.74-5.83-1.29l2.59-16.24,2.13.3a16,16,0,0,0,2.06.15q5.49,0,8.46-2.7a17.9,17.9,0,0,0,4.58-6.75l2.59-6.4L593.31,74.82h23.94Z"/></svg>