<svg id="Capa_1" data-name="Capa 1" xmlns="http://www.w3.org/2000/svg" xmlns:xlink="http://www.w3.org/1999/xlink" viewBox="0 0 387.44 143.6"><defs><style>.cls-1{fill:#131863;}.cls-2{fill:url(#Degradado_sin_nombre_15);}.cls-3{fill:#fe5f55;}</style><radialGradient id="Degradado_sin_nombre_15" cx="49.21" cy="50.94" r="50.09" gradientUnits="userSpaceOnUse"><stop offset="0" stop-color="#fe5f55"/><stop offset="0.18" stop-color="#c84c60"/><stop offset="0.42" stop-color="#88366e"/><stop offset="0.62" stop-color="#592678"/><stop offset="0.78" stop-color="#3d1c7e"/><stop offset="0.87" stop-color="#321880"/><stop offset="1" stop-color="#321880"/></radialGradient></defs><title>logo-full</title><path class="cls-1" d="M25.5,130.94v7.19H23V119.9h5.92a5.39,5.39,0,0,1,4.06,1.52,6.19,6.19,0,0,1,0,8,5.39,5.39,0,0,1-4.06,1.51Zm0-1.95h3.38a2.65,2.65,0,0,0,2.24-1,4.07,4.07,0,0,0,.76-2.53,4.23,4.23,0,0,0-.75-2.57,2.64,2.64,0,0,0-2.25-1H25.5Z"/><path class="cls-1" d="M42.64,126.7l-1.11-.06a1.92,1.92,0,0,0-1.33.48,3.1,3.1,0,0,0-.82,1.35v9.66H36.83V124.58h2.34l.17,2a4.28,4.28,0,0,1,1.16-1.66,2.38,2.38,0,0,1,1.61-.6,2,2,0,0,1,.44,0,2.43,2.43,0,0,1,.37.1Z"/><path class="cls-1" d="M44,131.2a8.1,8.1,0,0,1,1.43-4.94,4.95,4.95,0,0,1,7.84,0,8.1,8.1,0,0,1,1.43,4.94v.34a8,8,0,0,1-1.42,4.94,5,5,0,0,1-7.85,0A8,8,0,0,1,44,131.54Zm2.55.34a7.72,7.72,0,0,0,.7,3.54,2.25,2.25,0,0,0,2.12,1.38,2.21,2.21,0,0,0,2.08-1.38,7.77,7.77,0,0,0,.7-3.54v-.34a7.8,7.8,0,0,0-.7-3.52,2.28,2.28,0,0,0-4.2,0,7.8,7.8,0,0,0-.7,3.52Z"/><path class="cls-1" d="M57.93,138.13V126.4H56.14v-1.82h1.79v-1.74a4.85,4.85,0,0,1,1-3.33,3.7,3.7,0,0,1,2.92-1.17,5.09,5.09,0,0,1,.77.06c.26,0,.55.12.86.2l-.24,1.86-.5-.1a5.22,5.22,0,0,0-.58,0,1.45,1.45,0,0,0-1.29.65,3.23,3.23,0,0,0-.45,1.86v1.74h2.24v1.82H60.47v11.73Z"/><path class="cls-1" d="M69.3,138.39a4.73,4.73,0,0,1-4-1.85,7.66,7.66,0,0,1-1.44-4.82v-.59a8,8,0,0,1,1.43-4.89,4.45,4.45,0,0,1,3.73-1.91A4.1,4.1,0,0,1,72.58,126a7.25,7.25,0,0,1,1.21,4.41v1.42H66.44a6.65,6.65,0,0,0,.75,3.37,2.47,2.47,0,0,0,2.28,1.29,4.83,4.83,0,0,0,1.86-.33,4.67,4.67,0,0,0,1.45-1l.82,1.58a5.35,5.35,0,0,1-1.78,1.17A6.29,6.29,0,0,1,69.3,138.39Zm-.24-12.11a2,2,0,0,0-1.75,1,6,6,0,0,0-.82,2.7h4.8v-.29a4.86,4.86,0,0,0-.55-2.47A1.8,1.8,0,0,0,69.06,126.28Z"/><path class="cls-1" d="M82.5,134.71a1.79,1.79,0,0,0-.52-1.32,7,7,0,0,0-2-1.2,10.07,10.07,0,0,1-3.13-1.71,3.06,3.06,0,0,1-1-2.38,3.44,3.44,0,0,1,1.26-2.67,4.82,4.82,0,0,1,3.28-1.1,4.67,4.67,0,0,1,3.36,1.21,3.74,3.74,0,0,1,1.23,2.92l0,.08H82.44a2.52,2.52,0,0,0-.57-1.66,1.9,1.9,0,0,0-1.54-.7,2.09,2.09,0,0,0-1.53.55,1.75,1.75,0,0,0-.54,1.27,1.61,1.61,0,0,0,.47,1.22,8.11,8.11,0,0,0,2,1.15,9.29,9.29,0,0,1,3.2,1.74A3.22,3.22,0,0,1,85,134.58a3.36,3.36,0,0,1-1.3,2.75,5.16,5.16,0,0,1-3.4,1.06,4.9,4.9,0,0,1-3.58-1.27,3.83,3.83,0,0,1-1.25-3l0-.08h2.36a2.48,2.48,0,0,0,.75,1.9,2.64,2.64,0,0,0,1.73.58,2.23,2.23,0,0,0,1.58-.52A1.72,1.72,0,0,0,82.5,134.71Z"/><path class="cls-1" d="M93.8,134.71a1.79,1.79,0,0,0-.53-1.32,7,7,0,0,0-2-1.2,10.07,10.07,0,0,1-3.13-1.71,3,3,0,0,1-1-2.38,3.43,3.43,0,0,1,1.25-2.67,4.82,4.82,0,0,1,3.28-1.1A4.67,4.67,0,0,1,95,125.54a3.71,3.71,0,0,1,1.23,2.92l0,.08H93.73a2.52,2.52,0,0,0-.57-1.66,1.9,1.9,0,0,0-1.54-.7,2.07,2.07,0,0,0-1.52.55,1.72,1.72,0,0,0-.55,1.27,1.61,1.61,0,0,0,.47,1.22,8.11,8.11,0,0,0,2,1.15,9.29,9.29,0,0,1,3.2,1.74,3.22,3.22,0,0,1,1.07,2.47,3.36,3.36,0,0,1-1.3,2.75,5.16,5.16,0,0,1-3.4,1.06A4.91,4.91,0,0,1,88,137.12a3.83,3.83,0,0,1-1.25-3l0-.08h2.36a2.48,2.48,0,0,0,.75,1.9,2.64,2.64,0,0,0,1.73.58,2.26,2.26,0,0,0,1.59-.52A1.72,1.72,0,0,0,93.8,134.71Z"/><path class="cls-1" d="M101.38,121H98.83V118.6h2.55Zm0,17.1H98.83V124.58h2.55Z"/><path class="cls-1" d="M104,131.2a8.1,8.1,0,0,1,1.43-4.94,4.95,4.95,0,0,1,7.84,0,8,8,0,0,1,1.43,4.94v.34a8,8,0,0,1-1.42,4.94,5,5,0,0,1-7.85,0,8,8,0,0,1-1.43-4.94Zm2.56.34a7.85,7.85,0,0,0,.69,3.54,2.3,2.3,0,0,0,4.21,0,7.91,7.91,0,0,0,.69-3.54v-.34a7.8,7.8,0,0,0-.7-3.52,2.28,2.28,0,0,0-4.2,0,7.94,7.94,0,0,0-.69,3.52Z"/><path class="cls-1" d="M119.41,124.58l.15,2a4.41,4.41,0,0,1,1.45-1.67,3.44,3.44,0,0,1,2-.6,3.32,3.32,0,0,1,2.81,1.33,6.84,6.84,0,0,1,1,4.13v8.34h-2.54V129.8a5,5,0,0,0-.54-2.7,1.8,1.8,0,0,0-1.61-.79,2.45,2.45,0,0,0-1.5.46,3.23,3.23,0,0,0-1,1.25v10.11h-2.55V124.58Z"/><path class="cls-1" d="M136.76,138.13c-.11-.41-.2-.78-.26-1.1a7.87,7.87,0,0,1-.12-1,5,5,0,0,1-1.42,1.66,3.28,3.28,0,0,1-2,.66,3.57,3.57,0,0,1-2.79-1.08,4.25,4.25,0,0,1-1-2.94,3.69,3.69,0,0,1,1.35-3,5.8,5.8,0,0,1,3.75-1.1h2.08v-1.39a3.08,3.08,0,0,0-.55-1.93,1.92,1.92,0,0,0-1.58-.7,1.85,1.85,0,0,0-1.47.61,2.21,2.21,0,0,0-.55,1.54H129.8l0-.08a3.44,3.44,0,0,1,1.23-2.78,4.82,4.82,0,0,1,3.4-1.2,4.6,4.6,0,0,1,3.27,1.18,4.45,4.45,0,0,1,1.25,3.38v6.28a10.64,10.64,0,0,0,.1,1.51,10.4,10.4,0,0,0,.31,1.45Zm-3.28-1.69a2.87,2.87,0,0,0,1.84-.65,3,3,0,0,0,1.05-1.56v-2.4h-2.12a2.36,2.36,0,0,0-1.84.74,2.63,2.63,0,0,0-.66,1.8,2.31,2.31,0,0,0,.45,1.5A1.53,1.53,0,0,0,133.48,136.44Z"/><path class="cls-1" d="M144.54,138.13H142V118.6h2.55Z"/><path class="cls-1" d="M158.17,138.39a4.75,4.75,0,0,1-4-1.85,7.71,7.71,0,0,1-1.43-4.82v-.59a7.94,7.94,0,0,1,1.42-4.89,4.48,4.48,0,0,1,3.74-1.91,4.12,4.12,0,0,1,3.52,1.64,7.32,7.32,0,0,1,1.21,4.41v1.42h-7.35a6.76,6.76,0,0,0,.74,3.37,2.47,2.47,0,0,0,2.29,1.29,4.78,4.78,0,0,0,1.85-.33,4.56,4.56,0,0,0,1.45-1l.83,1.58a5.46,5.46,0,0,1-1.78,1.17A6.31,6.31,0,0,1,158.17,138.39Zm-.23-12.11a2,2,0,0,0-1.76,1,6.15,6.15,0,0,0-.81,2.7h4.79v-.29a5,5,0,0,0-.54-2.47A1.81,1.81,0,0,0,157.94,126.28Z"/><path class="cls-1" d="M169.08,129.53h.07l2.18-5h2.93l-3.67,6.69,3.79,6.86h-2.9L169.19,133h-.08l-2.27,5.11h-2.91l3.77-6.86L164,124.58h2.88Z"/><path class="cls-1" d="M186.43,131.78a8.57,8.57,0,0,1-1.2,4.81,4,4,0,0,1-5.11,1.4,3.58,3.58,0,0,1-1.31-1.15v6.49h-2.55V124.58h2.17l.23,1.63a4.06,4.06,0,0,1,1.36-1.4,3.53,3.53,0,0,1,1.86-.48,3.73,3.73,0,0,1,3.35,2,9.94,9.94,0,0,1,1.2,5.22Zm-2.56-.26a9,9,0,0,0-.67-3.76,2.13,2.13,0,0,0-2-1.45,2.28,2.28,0,0,0-1.44.47,3.35,3.35,0,0,0-.94,1.27v6.82a3,3,0,0,0,.94,1.18,2.54,2.54,0,0,0,1.46.41,2.12,2.12,0,0,0,2-1.28,7.42,7.42,0,0,0,.66-3.4Z"/><path class="cls-1" d="M188.37,131.2a8.1,8.1,0,0,1,1.42-4.94,4.95,4.95,0,0,1,7.84,0,8,8,0,0,1,1.44,4.94v.34a8,8,0,0,1-1.43,4.94,4.61,4.61,0,0,1-3.9,1.91,4.66,4.66,0,0,1-4-1.91,8,8,0,0,1-1.42-4.94Zm2.55.34a7.85,7.85,0,0,0,.69,3.54,2.26,2.26,0,0,0,2.13,1.38,2.22,2.22,0,0,0,2.08-1.38,7.91,7.91,0,0,0,.69-3.54v-.34a7.8,7.8,0,0,0-.7-3.52,2.28,2.28,0,0,0-4.2,0,7.94,7.94,0,0,0-.69,3.52Z"/><path class="cls-1" d="M207.92,134.71a1.79,1.79,0,0,0-.53-1.32,7.07,7.07,0,0,0-2-1.2,9.84,9.84,0,0,1-3.13-1.71,3,3,0,0,1-1-2.38,3.44,3.44,0,0,1,1.26-2.67,4.81,4.81,0,0,1,3.27-1.1,4.69,4.69,0,0,1,3.37,1.21,3.7,3.7,0,0,1,1.22,2.92l0,.08h-2.45a2.52,2.52,0,0,0-.57-1.66,1.92,1.92,0,0,0-1.55-.7,2.07,2.07,0,0,0-1.52.55,1.76,1.76,0,0,0-.55,1.27,1.61,1.61,0,0,0,.47,1.22,8.53,8.53,0,0,0,2,1.15,9.19,9.19,0,0,1,3.2,1.74,3.22,3.22,0,0,1,1.07,2.47,3.38,3.38,0,0,1-1.29,2.75,5.2,5.2,0,0,1-3.4,1.06,4.92,4.92,0,0,1-3.59-1.27,3.79,3.79,0,0,1-1.24-3l0-.08h2.37A2.48,2.48,0,0,0,204,136a2.64,2.64,0,0,0,1.73.58,2.26,2.26,0,0,0,1.59-.52A1.72,1.72,0,0,0,207.92,134.71Z"/><path class="cls-1" d="M220.07,136.15a4.27,4.27,0,0,1-1.4,1.66,3.49,3.49,0,0,1-2,.58,3.4,3.4,0,0,1-2.91-1.44,7.63,7.63,0,0,1-1.06-4.47v-7.9h2.56v7.93a6.61,6.61,0,0,0,.5,3,1.64,1.64,0,0,0,1.53.87,2.82,2.82,0,0,0,1.59-.43,3,3,0,0,0,1-1.26V124.58h2.55v13.55h-2.17Z"/><path class="cls-1" d="M231.21,126.7l-1.1-.06a1.91,1.91,0,0,0-1.33.48,3,3,0,0,0-.82,1.35v9.66H225.4V124.58h2.35l.17,2a4.37,4.37,0,0,1,1.15-1.66,2.43,2.43,0,0,1,1.62-.6,2,2,0,0,1,.44,0,2.8,2.8,0,0,1,.37.1Z"/><path class="cls-1" d="M238,138.39a4.73,4.73,0,0,1-4-1.85,7.66,7.66,0,0,1-1.44-4.82v-.59a8,8,0,0,1,1.43-4.89,4.45,4.45,0,0,1,3.73-1.91,4.1,4.1,0,0,1,3.52,1.64,7.25,7.25,0,0,1,1.21,4.41v1.42h-7.35a6.65,6.65,0,0,0,.75,3.37,2.46,2.46,0,0,0,2.28,1.29,4.42,4.42,0,0,0,3.31-1.3l.82,1.58a5.35,5.35,0,0,1-1.78,1.17A6.29,6.29,0,0,1,238,138.39Zm-.24-12.11a2,2,0,0,0-1.75,1,6,6,0,0,0-.82,2.7h4.8v-.29a4.86,4.86,0,0,0-.55-2.47A1.8,1.8,0,0,0,237.71,126.28Z"/><path class="cls-1" d="M253.08,121h-2.55V118.6h2.55Zm0,17.1h-2.55V124.58h2.55Z"/><path class="cls-1" d="M258.49,124.58l.15,2a4.5,4.5,0,0,1,1.45-1.67,3.46,3.46,0,0,1,2-.6,3.32,3.32,0,0,1,2.81,1.33,6.84,6.84,0,0,1,1,4.13v8.34h-2.54V129.8a5.1,5.1,0,0,0-.53-2.7,1.81,1.81,0,0,0-1.61-.79,2.41,2.41,0,0,0-1.5.46,3.16,3.16,0,0,0-1,1.25v10.11h-2.55V124.58Z"/><path class="cls-1" d="M283.62,130h-6.37v8.1h-2.54V119.9h10v1.95h-7.48v6.24h6.37Z"/><path class="cls-1" d="M290.36,133.46l.2.91h.07l2.66-9.79h2.79l-4.85,15.65a7.05,7.05,0,0,1-1.28,2.38,3,3,0,0,1-2.38,1,4.24,4.24,0,0,1-.68-.07l-.71-.16.29-1.88a2.05,2.05,0,0,0,.37,0l.38,0a1.39,1.39,0,0,0,1.19-.63,5,5,0,0,0,.68-1.5l.47-1.4-4.27-13.46h2.78Z"/><path class="cls-1" d="M305.77,124.58l.14,1.84a4.1,4.1,0,0,1,1.43-1.54,3.66,3.66,0,0,1,2-.55,3.18,3.18,0,0,1,1.95.62,3.65,3.65,0,0,1,1.24,1.89A4.56,4.56,0,0,1,314,125a3.38,3.38,0,0,1,2.1-.67,3.22,3.22,0,0,1,2.78,1.43,7.69,7.69,0,0,1,1,4.37v8h-2.56v-8a6,6,0,0,0-.52-3,1.74,1.74,0,0,0-1.57-.84,1.94,1.94,0,0,0-1.47.65,3.89,3.89,0,0,0-.87,1.72l0,.46c0,.17,0,.33,0,.5v8.49h-2.54v-8a5.89,5.89,0,0,0-.54-2.92,1.72,1.72,0,0,0-1.57-.88,2.22,2.22,0,0,0-1.4.45A3,3,0,0,0,306,128v10.13h-2.55V124.58Z"/><path class="cls-1" d="M325.52,121H323V118.6h2.55Zm0,17.1H323V124.58h2.55Z"/><path class="cls-1" d="M330.93,124.58l.15,2a4.5,4.5,0,0,1,1.45-1.67,3.44,3.44,0,0,1,2-.6,3.32,3.32,0,0,1,2.81,1.33,6.84,6.84,0,0,1,1,4.13v8.34H335.8V129.8a5.1,5.1,0,0,0-.53-2.7,1.81,1.81,0,0,0-1.61-.79,2.41,2.41,0,0,0-1.5.46,3.16,3.16,0,0,0-1,1.25v10.11H328.6V124.58Z"/><path class="cls-1" d="M348.53,136.15a4.45,4.45,0,0,1-1.4,1.66,3.49,3.49,0,0,1-2,.58,3.41,3.41,0,0,1-2.92-1.44,7.63,7.63,0,0,1-1.05-4.47v-7.9h2.55v7.93a6.61,6.61,0,0,0,.5,3,1.66,1.66,0,0,0,1.53.87,2.83,2.83,0,0,0,1.6-.43,3,3,0,0,0,1-1.26V124.58h2.55v13.55h-2.16Z"/><path class="cls-1" d="M357.13,121.22v3.36h2.11v1.82h-2.11v8.06a2.55,2.55,0,0,0,.32,1.49,1,1,0,0,0,.84.45,1.7,1.7,0,0,0,.4,0,3.52,3.52,0,0,0,.44-.11l.26,1.75a3.77,3.77,0,0,1-.8.28,4.06,4.06,0,0,1-.92.11,2.84,2.84,0,0,1-2.28-.95,4.51,4.51,0,0,1-.82-3V126.4h-1.79v-1.82h1.79v-3.36Z"/><path class="cls-1" d="M366.44,138.39a4.74,4.74,0,0,1-4-1.85,7.65,7.65,0,0,1-1.43-4.82v-.59a7.94,7.94,0,0,1,1.42-4.89,4.46,4.46,0,0,1,3.73-1.91,4.12,4.12,0,0,1,3.53,1.64,7.32,7.32,0,0,1,1.2,4.41v1.42h-7.34a6.76,6.76,0,0,0,.74,3.37,2.47,2.47,0,0,0,2.29,1.29,4.78,4.78,0,0,0,1.85-.33,4.67,4.67,0,0,0,1.45-1l.83,1.58a5.4,5.4,0,0,1-1.79,1.17A6.29,6.29,0,0,1,366.44,138.39Zm-.24-12.11a2,2,0,0,0-1.75,1,6.15,6.15,0,0,0-.81,2.7h4.79v-.29a5,5,0,0,0-.54-2.47A1.82,1.82,0,0,0,366.2,126.28Z"/><path class="cls-1" d="M379.65,134.71a1.79,1.79,0,0,0-.53-1.32,7.07,7.07,0,0,0-2-1.2,9.84,9.84,0,0,1-3.13-1.71,3,3,0,0,1-1-2.38,3.44,3.44,0,0,1,1.26-2.67,4.79,4.79,0,0,1,3.27-1.1,4.71,4.71,0,0,1,3.37,1.21,3.7,3.7,0,0,1,1.22,2.92l0,.08h-2.46a2.52,2.52,0,0,0-.57-1.66,1.9,1.9,0,0,0-1.54-.7,2.07,2.07,0,0,0-1.52.55,1.76,1.76,0,0,0-.55,1.27,1.61,1.61,0,0,0,.47,1.22,8.53,8.53,0,0,0,2,1.15,9.19,9.19,0,0,1,3.2,1.74,3.22,3.22,0,0,1,1.07,2.47,3.38,3.38,0,0,1-1.29,2.75,5.2,5.2,0,0,1-3.4,1.06,4.92,4.92,0,0,1-3.59-1.27,3.83,3.83,0,0,1-1.25-3l0-.08H375a2.48,2.48,0,0,0,.74,1.9,2.64,2.64,0,0,0,1.73.58,2.26,2.26,0,0,0,1.59-.52A1.72,1.72,0,0,0,379.65,134.71Z"/><path class="cls-2" d="M0,59.58A59.3,59.3,0,0,0,10.56,93.45a37.47,37.47,0,0,0,4.14,5l2.23,2.28a3.44,3.44,0,0,0,2.68,1.14,4.1,4.1,0,0,0,2.68-1.11L38,85.1a33.39,33.39,0,1,0-6-6.66l-9.69,9.37A3.48,3.48,0,0,1,17,87.2a50.8,50.8,0,0,1,74-67.6A7.81,7.81,0,0,0,94,20.87a4.4,4.4,0,0,0,3.13-7.5v0l-.56-.45A59.58,59.58,0,0,0,0,59.58ZM59.58,86.24A26.66,26.66,0,1,1,86.24,59.58,26.66,26.66,0,0,1,59.58,86.24Z"/><path class="cls-3" d="M58.17,43.6l.48,0A16,16,0,1,1,43.56,60.51c0-.34,0-.67,0-1A16,16,0,0,0,58.17,43.6Z"/><path class="cls-1" d="M166.7,90.66H153.87V64.08H127.82V90.66H115v-64h12.83v27.5h26.05V26.69H166.7Z"/><path class="cls-1" d="M175.53,66.45q0-10.64,5.93-17.42t16.44-6.79q10.54,0,16.52,6.77t6,17.44v.92q0,10.72-5.95,17.47T198,91.58q-10.54,0-16.49-6.74t-6-17.47Zm12.79.92q0,6.51,2.28,10.44T198,81.74a7.82,7.82,0,0,0,7.28-4q2.3-3.94,2.3-10.41v-.92a20.28,20.28,0,0,0-2.33-10.33,8.65,8.65,0,0,0-14.61,0,20.59,20.59,0,0,0-2.3,10.3Z"/><path class="cls-1" d="M244.82,73l.84,4.4h.26l.88-4.4,7.82-29.83H268L251.85,90.66H239.59L223.42,43.12h13.41Z"/><path class="cls-1" d="M287.09,31.74H274.26V22.12h12.83Zm0,58.92H274.26V43.12h12.83Z"/><path class="cls-1" d="M336,64.08H311.43V90.66H298.6v-64h41.87v9.88h-29V54.19H336Z"/><path class="cls-1" d="M363.76,70.71l.53,2.64h.26l9.1-30.23h13.79L368.15,97.78a25,25,0,0,1-5.49,8.59q-3.46,3.48-10.41,3.49a16.55,16.55,0,0,1-3-.26q-1.38-.27-3.36-.75l1.49-9.36,1.23.18a10.78,10.78,0,0,0,1.19.08,7,7,0,0,0,4.88-1.56,10.2,10.2,0,0,0,2.63-3.89l1.5-3.69L341.92,43.12h13.8Z"/></svg>