<svg id="Capa_1" data-name="Capa 1" xmlns="http://www.w3.org/2000/svg" xmlns:xlink="http://www.w3.org/1999/xlink" viewBox="0 0 672.68 199.63"><defs><style>.cls-1{fill:url(#Degradado_sin_nombre_15);}.cls-2{fill:#fe5f55;}.cls-3{font-size:156.14px;fill:#131863;font-family:Roboto-Bold, Roboto;font-weight:700;}.cls-4{letter-spacing:-0.01em;}.cls-5{letter-spacing:-0.01em;}</style><radialGradient id="Degradado_sin_nombre_15" cx="85.39" cy="88.4" r="86.91" gradientUnits="userSpaceOnUse"><stop offset="0" stop-color="#fe5f55"/><stop offset="0.18" stop-color="#c84c60"/><stop offset="0.42" stop-color="#88366e"/><stop offset="0.62" stop-color="#592678"/><stop offset="0.78" stop-color="#3d1c7e"/><stop offset="0.87" stop-color="#321880"/><stop offset="1" stop-color="#321880"/></radialGradient></defs><title>logo1</title><path class="cls-1" d="M0,103.38a102.86,102.86,0,0,0,18.33,58.77,67.19,67.19,0,0,0,7.17,8.71l3.88,3.95a6,6,0,0,0,4.64,2,7.24,7.24,0,0,0,4.67-1.91l27.19-27.2a57.9,57.9,0,1,0-10.44-11.56L38.62,152.37a6,6,0,0,1-9.2-1.06A88.14,88.14,0,0,1,157.75,34s3.3,2.21,5.4,2.21a7.64,7.64,0,0,0,5.42-13l0,0-1-.77A103.37,103.37,0,0,0,0,103.38Zm103.38,46.27a46.27,46.27,0,1,1,46.27-46.27A46.27,46.27,0,0,1,103.38,149.65Z"/><path class="cls-2" d="M100.93,75.66l.83-.07A27.84,27.84,0,1,1,75.59,105c0-.58,0-1.15,0-1.73A27.81,27.81,0,0,0,100.93,75.66Z"/><text class="cls-3" transform="translate(189.31 157.31)">H<tspan class="cls-4" x="110.17" y="0">o</tspan><tspan x="197.16" y="0">vi</tspan><tspan class="cls-5" x="318.61" y="0">F</tspan><tspan x="403.62" y="0">y</tspan></text></svg>